# File created by Blade
# Date/Time:  Tue Jan 27 19:54:25 2015
# Frame Rate: 120.000 fps
#------------------------------------------------------
:FULLY-SPECIFIED
:DEGREES
3276
root 5.693478 34.883963 -1.098887 37.393099 -27.888732 -46.099401
Spine 6.639216 26.431628 15.208721
Head -25.726748 6.970881 8.185161
LeftShoulder -17.877260 -3.266592 32.900484
LeftArm -12.413476 -50.718583 -62.791113
LeftForeArm -67.501726 -0.000000 138.652490
LeftHand 5.361618 -0.000000 -36.235860
LeftHandThumb1 -26.253704 0.000000 33.147579
RightShoulder -10.626412 -2.525327 -18.834759
RightArm 24.885947 -39.557359 75.265107
RightForeArm -25.543016 -0.000000 24.126369
RightHand 17.529612 0.000000 10.181563
RightHandThumb1 -24.326973 -0.000000 -32.862282
LeftUpLeg -4.364792 15.316514 29.785277
LeftLeg -4.844823 -0.000000 0.000000
LeftFoot -17.485573 20.405823 -16.505963
LeftToeBase 22.970569 -0.000000 -0.000000
RightUpLeg -29.746849 -50.566688 -21.024472
RightLeg 119.305281 -0.000000 -0.000000
RightFoot 33.093692 -16.830008 18.256244
RightToeBase 11.578476 -0.000000 -0.000000
3277
root 5.696847 34.874146 -1.095366 37.465559 -28.395111 -46.195118
Spine 6.675615 26.703634 14.946514
Head -25.521696 7.114966 8.170394
LeftShoulder -17.916463 -3.230295 32.941681
LeftArm -12.575926 -50.794530 -62.697063
LeftForeArm -67.513891 -0.000000 138.719574
LeftHand 5.350271 -0.000000 -35.977280
LeftHandThumb1 -26.253704 0.000000 33.147579
RightShoulder -10.575686 -2.446303 -18.870893
RightArm 24.905072 -39.598891 75.364875
RightForeArm -25.447883 -0.000000 24.067429
RightHand 17.501058 0.000000 9.918000
RightHandThumb1 -24.326973 -0.000000 -32.862282
LeftUpLeg -4.058766 15.517105 29.611084
LeftLeg -4.867014 -0.000000 0.000000
LeftFoot -17.580261 20.594112 -16.567881
LeftToeBase 22.957259 -0.000000 -0.000000
RightUpLeg -31.509688 -51.370638 -19.634353
RightLeg 119.076015 -0.000000 -0.000000
RightFoot 33.094984 -16.925979 18.717862
RightToeBase 11.661045 -0.000000 -0.000000
3278
root 5.692563 34.866789 -1.089019 37.531704 -28.905704 -46.352403
Spine 6.737943 27.002892 14.731348
Head -25.293008 7.268256 8.172484
LeftShoulder -17.965415 -3.165920 32.985387
LeftArm -12.693887 -50.855073 -62.630106
LeftForeArm -67.400800 -0.000000 138.792626
LeftHand 5.312856 -0.000000 -35.898188
LeftHandThumb1 -26.253704 0.000000 33.147579
RightShoulder -10.531636 -2.412004 -18.884926
RightArm 24.972293 -39.642367 75.434303
RightForeArm -25.401310 -0.000000 24.003357
RightHand 17.522885 0.000000 9.881648
RightHandThumb1 -24.326973 -0.000000 -32.862282
LeftUpLeg -3.647749 15.801733 29.497377
LeftLeg -4.966614 -0.000000 0.000000
LeftFoot -17.610901 20.732703 -16.577245
LeftToeBase 22.968898 -0.000000 -0.000000
RightUpLeg -33.313323 -52.200315 -18.120927
RightLeg 118.825569 -0.000000 -0.000000
RightFoot 33.068083 -17.211542 19.446736
RightToeBase 11.820402 -0.000000 -0.000000
3279
root 5.682502 34.860329 -1.071903 37.506845 -29.253098 -46.524969
Spine 6.873813 27.154300 14.727154
Head -25.033754 7.424059 8.075282
LeftShoulder -18.016531 -3.075969 32.956987
LeftArm -12.814497 -50.931508 -62.554154
LeftForeArm -67.211899 -0.000000 138.901819
LeftHand 5.291087 -0.000000 -35.997534
LeftHandThumb1 -26.253704 0.000000 33.147579
RightShoulder -10.481736 -2.363880 -18.964423
RightArm 24.985634 -39.731277 75.503688
RightForeArm -25.410624 -0.000000 23.968483
RightHand 17.576290 0.000000 9.878028
RightHandThumb1 -24.326973 -0.000000 -32.862282
LeftUpLeg -3.211805 16.049524 29.492991
LeftLeg -5.064414 -0.000000 0.000000
LeftFoot -17.669741 20.752906 -16.599336
LeftToeBase 22.967244 -0.000000 -0.000000
RightUpLeg -34.858768 -53.213305 -16.654826
RightLeg 118.512487 -0.000000 -0.000000
RightFoot 33.081807 -17.568696 20.099787
RightToeBase 11.061711 -0.000000 -0.000000
3280
root 5.675143 34.851352 -1.053767 37.479906 -29.647074 -46.675112
Spine 7.000469 27.349483 14.665467
Head -24.756598 7.568951 7.994442
LeftShoulder -18.076465 -2.968561 32.920766
LeftArm -12.843343 -50.992469 -62.516749
LeftForeArm -67.102625 -0.000000 138.993472
LeftHand 5.328430 -0.000000 -36.095888
LeftHandThumb1 -26.253704 0.000000 33.147579
RightShoulder -10.431880 -2.338603 -19.021466
RightArm 24.995481 -39.767012 75.580838
RightForeArm -25.486655 -0.000000 23.947860
RightHand 17.590993 0.000000 9.886451
RightHandThumb1 -24.326973 -0.000000 -32.862282
LeftUpLeg -2.715962 16.195108 29.451191
LeftLeg -5.258848 -0.000000 0.000000
LeftFoot -17.704471 20.861642 -16.692962
LeftToeBase 22.890418 -0.000000 -0.000000
RightUpLeg -36.579813 -54.224708 -15.091009
RightLeg 118.235570 -0.000000 -0.000000
RightFoot 32.886901 -18.144030 20.970428
RightToeBase 11.235443 -0.000000 -0.000000
3281
root 5.662432 34.843039 -1.034112 37.450631 -30.026860 -46.858092
Spine 7.120060 27.530933 14.637369
Head -24.419353 7.741128 7.912640
LeftShoulder -18.138464 -2.846542 32.874623
LeftArm -12.871881 -51.081474 -62.446883
LeftForeArm -67.084729 -0.000000 139.053783
LeftHand 5.299480 -0.000000 -36.046396
LeftHandThumb1 -26.253704 0.000000 33.147579
RightShoulder -10.394346 -2.317771 -19.070409
RightArm 25.040299 -39.835098 75.640775
RightForeArm -25.620295 0.000000 23.901314
RightHand 17.601020 -0.000000 9.958572
RightHandThumb1 -24.326973 -0.000000 -32.862282
LeftUpLeg -2.212517 16.400603 29.453289
LeftLeg -5.409538 -0.000000 0.000000
LeftFoot -17.705500 20.927811 -16.692073
LeftToeBase 22.730575 -0.000000 -0.000000
RightUpLeg -38.380494 -55.250487 -13.389970
RightLeg 117.963661 -0.000000 -0.000000
RightFoot 32.709986 -18.603288 21.634294
RightToeBase 11.230481 -0.000000 -0.000000
3282
root 5.653615 34.834355 -1.016106 37.419244 -30.380418 -47.009349
Spine 7.217787 27.697969 14.594683
Head -24.078195 7.876901 7.864705
LeftShoulder -18.184204 -2.734968 32.816649
LeftArm -12.905860 -51.200201 -62.357064
LeftForeArm -67.083170 -0.000000 139.100091
LeftHand 5.172259 -0.000000 -35.974995
LeftHandThumb1 -26.253704 0.000000 33.147579
RightShoulder -10.388456 -2.345506 -19.082284
RightArm 25.200555 -39.940166 75.574078
RightForeArm -25.752034 -0.000000 23.867734
RightHand 17.576791 -0.000000 10.040671
RightHandThumb1 -24.326973 -0.000000 -32.862282
LeftUpLeg -1.781085 16.530841 29.431282
LeftLeg -5.511949 -0.000000 0.000000
LeftFoot -17.755427 21.096886 -16.694185
LeftToeBase 22.636168 -0.000000 -0.000000
RightUpLeg -40.310554 -56.301855 -11.578722
RightLeg 117.715488 -0.000000 -0.000000
RightFoot 32.379281 -19.045910 22.477472
RightToeBase 11.220810 -0.000000 -0.000000
3283
root 5.640412 34.825843 -0.995665 37.354810 -30.761249 -47.176973
Spine 7.360254 27.872465 14.548369
Head -23.734976 8.021831 7.855922
LeftShoulder -18.243725 -2.647410 32.778211
LeftArm -12.976688 -51.297715 -62.215079
LeftForeArm -67.176819 0.000000 139.116157
LeftHand 5.073714 -0.000000 -35.649269
LeftHandThumb1 -26.253704 0.000000 33.147579
RightShoulder -10.358021 -2.341303 -19.074899
RightArm 25.336983 -40.034882 75.515641
RightForeArm -25.843962 -0.000000 23.823982
RightHand 17.592785 -0.000000 10.211823
RightHandThumb1 -24.326973 -0.000000 -32.862282
LeftUpLeg -1.282180 16.679761 29.428783
LeftLeg -5.610117 -0.000000 0.000000
LeftFoot -17.820129 21.207061 -16.742840
LeftToeBase 22.637373 -0.000000 -0.000000
RightUpLeg -42.382889 -57.345539 -9.613913
RightLeg 117.457401 -0.000000 -0.000000
RightFoot 32.079988 -19.706573 23.332602
RightToeBase 10.771547 -0.000000 -0.000000
3284
root 5.625668 34.817392 -0.976007 37.297767 -31.114709 -47.330635
Spine 7.471223 28.054521 14.491855
Head -23.398108 8.140821 7.859709
LeftShoulder -18.286247 -2.554928 32.730665
LeftArm -13.035847 -51.384542 -62.065288
LeftForeArm -67.112795 -0.000000 139.134594
LeftHand 5.053149 -0.000000 -35.738362
LeftHandThumb1 -26.253704 0.000000 33.147579
RightShoulder -10.342424 -2.285660 -19.082230
RightArm 25.381416 -40.150263 75.526483
RightForeArm -25.861855 -0.000000 23.790075
RightHand 17.557259 -0.000000 10.366224
RightHandThumb1 -24.326973 -0.000000 -32.862282
LeftUpLeg -0.827504 16.869149 29.419814
LeftLeg -5.693741 -0.000000 0.000000
LeftFoot -17.832662 21.294160 -16.693263
LeftToeBase 22.497905 -0.000000 -0.000000
RightUpLeg -44.582289 -58.376037 -7.518412
RightLeg 117.224057 -0.000000 -0.000000
RightFoot 31.906324 -20.164230 24.052899
RightToeBase 9.951739 -0.000000 -0.000000
3285
root 5.608889 34.809960 -0.958343 37.239668 -31.482639 -47.507391
Spine 7.606379 28.239286 14.435716
Head -23.085016 8.280624 7.883896
LeftShoulder -18.330212 -2.492612 32.733815
LeftArm -13.171887 -51.535402 -61.876535
LeftForeArm -67.145809 0.000000 139.125822
LeftHand 5.088512 -0.000000 -35.746321
LeftHandThumb1 -26.253704 0.000000 33.147579
RightShoulder -10.298811 -2.198503 -19.094694
RightArm 25.419965 -40.287507 75.545635
RightForeArm -25.899718 -0.000000 23.726061
RightHand 17.512678 -0.000000 10.391353
RightHandThumb1 -24.326973 -0.000000 -32.862282
LeftUpLeg -0.365030 17.042608 29.434061
LeftLeg -5.732013 -0.000000 0.000000
LeftFoot -17.896798 21.404954 -16.671906
LeftToeBase 22.394160 -0.000000 -0.000000
RightUpLeg -46.910633 -59.338914 -5.276689
RightLeg 117.004149 -0.000000 -0.000000
RightFoot 31.481419 -20.807888 25.049881
RightToeBase 10.764192 -0.000000 -0.000000
